<svg xmlns="http://www.w3.org/2000/svg" xmlns:xlink="http://www.w3.org/1999/xlink" width="236" zoomAndPan="magnify" viewBox="0 0 177 135.000003" height="180" preserveAspectRatio="xMidYMid meet" version="1.0"><defs><g/><clipPath id="fec9da5d9a"><path d="M 0.652344 0 L 176.347656 0 L 176.347656 134.007812 L 0.652344 134.007812 Z M 0.652344 0 " clip-rule="nonzero"/></clipPath><clipPath id="cdd10ba7c5"><path d="M 35 0 L 142 0 L 142 96 L 35 96 Z M 35 0 " clip-rule="nonzero"/></clipPath><clipPath id="b96297881c"><path d="M 88.5 0.308594 L 144.957031 56.769531 L 88.5 113.226562 L 32.039062 56.769531 Z M 88.5 0.308594 " clip-rule="nonzero"/></clipPath><clipPath id="97f691fde8"><path d="M 88.5 0.308594 L 144.957031 56.769531 L 88.5 113.226562 L 32.039062 56.769531 Z M 88.5 0.308594 " clip-rule="nonzero"/></clipPath><clipPath id="56ee94c9f7"><path d="M 78 92 L 99 92 L 99 114 L 78 114 Z M 78 92 " clip-rule="nonzero"/></clipPath><clipPath id="e224d00343"><path d="M 88.5 0.308594 L 144.957031 56.769531 L 88.5 113.226562 L 32.039062 56.769531 Z M 88.5 0.308594 " clip-rule="nonzero"/></clipPath><clipPath id="131d3ef634"><path d="M 88.5 0.308594 L 144.957031 56.769531 L 88.5 113.226562 L 32.039062 56.769531 Z M 88.5 0.308594 " clip-rule="nonzero"/></clipPath><clipPath id="c81ac3eb73"><path d="M 11.664062 33.136719 L 165.335938 33.136719 L 165.335938 67.628906 L 11.664062 67.628906 Z M 11.664062 33.136719 " clip-rule="nonzero"/></clipPath></defs><g clip-path="url(#fec9da5d9a)"><path fill="#ffffff" d="M 0.652344 0 L 176.347656 0 L 176.347656 134.007812 L 0.652344 134.007812 Z M 0.652344 0 " fill-opacity="1" fill-rule="nonzero"/></g><g clip-path="url(#cdd10ba7c5)"><g clip-path="url(#b96297881c)"><g clip-path="url(#97f691fde8)"><path fill="#145da0" d="M 88.5 0.308594 L 35.855469 52.949219 L 78.199219 95.292969 L 88.5 84.992188 L 56.457031 52.949219 L 88.5 20.910156 L 120.539062 52.949219 L 88.5 84.992188 L 98.800781 95.292969 L 141.140625 52.949219 Z M 88.5 0.308594 " fill-opacity="1" fill-rule="nonzero"/></g></g></g><g clip-path="url(#56ee94c9f7)"><g clip-path="url(#e224d00343)"><g clip-path="url(#131d3ef634)"><path fill="#145da0" d="M 88.5 92.625 L 98.800781 102.925781 L 88.5 113.226562 L 78.199219 102.925781 Z M 88.5 92.625 " fill-opacity="1" fill-rule="nonzero"/></g></g></g><g fill="#000000" fill-opacity="1"><g transform="translate(13.643405, 128.500061)"><g><path d="M 1.546875 -11.375 L 4.796875 -11.375 C 6.210938 -11.375 7.285156 -11.160156 8.015625 -10.734375 C 8.742188 -10.316406 9.109375 -9.59375 9.109375 -8.5625 C 9.109375 -7.882812 8.921875 -7.328125 8.546875 -6.890625 C 8.179688 -6.453125 7.648438 -6.171875 6.953125 -6.046875 L 6.953125 -5.953125 C 7.429688 -5.867188 7.863281 -5.726562 8.25 -5.53125 C 8.632812 -5.332031 8.9375 -5.046875 9.15625 -4.671875 C 9.382812 -4.296875 9.5 -3.816406 9.5 -3.234375 C 9.5 -2.203125 9.144531 -1.40625 8.4375 -0.84375 C 7.726562 -0.28125 6.765625 0 5.546875 0 L 1.546875 0 Z M 2.984375 -6.53125 L 5.078125 -6.53125 C 6.046875 -6.53125 6.710938 -6.6875 7.078125 -7 C 7.453125 -7.3125 7.640625 -7.78125 7.640625 -8.40625 C 7.640625 -9.03125 7.414062 -9.476562 6.96875 -9.75 C 6.53125 -10.019531 5.828125 -10.15625 4.859375 -10.15625 L 2.984375 -10.15625 Z M 2.984375 -5.34375 L 2.984375 -1.21875 L 5.28125 -1.21875 C 6.289062 -1.21875 6.988281 -1.410156 7.375 -1.796875 C 7.769531 -2.191406 7.96875 -2.707031 7.96875 -3.34375 C 7.96875 -3.9375 7.757812 -4.414062 7.34375 -4.78125 C 6.9375 -5.15625 6.207031 -5.34375 5.15625 -5.34375 Z M 2.984375 -5.34375 "/></g></g></g><g fill="#000000" fill-opacity="1"><g transform="translate(25.147817, 128.500061)"><g><path d="M 4.65625 -8.703125 C 5.375 -8.703125 6 -8.539062 6.53125 -8.21875 C 7.0625 -7.90625 7.46875 -7.457031 7.75 -6.875 C 8.03125 -6.300781 8.171875 -5.625 8.171875 -4.84375 L 8.171875 -4 L 2.328125 -4 C 2.347656 -3.03125 2.59375 -2.289062 3.0625 -1.78125 C 3.539062 -1.28125 4.203125 -1.03125 5.046875 -1.03125 C 5.585938 -1.03125 6.066406 -1.082031 6.484375 -1.1875 C 6.910156 -1.289062 7.347656 -1.4375 7.796875 -1.625 L 7.796875 -0.40625 C 7.359375 -0.207031 6.925781 -0.0664062 6.5 0.015625 C 6.070312 0.109375 5.566406 0.15625 4.984375 0.15625 C 4.171875 0.15625 3.453125 -0.00390625 2.828125 -0.328125 C 2.210938 -0.660156 1.734375 -1.148438 1.390625 -1.796875 C 1.046875 -2.441406 0.875 -3.242188 0.875 -4.203125 C 0.875 -5.140625 1.03125 -5.941406 1.34375 -6.609375 C 1.65625 -7.285156 2.09375 -7.800781 2.65625 -8.15625 C 3.226562 -8.519531 3.894531 -8.703125 4.65625 -8.703125 Z M 4.640625 -7.546875 C 3.972656 -7.546875 3.441406 -7.332031 3.046875 -6.90625 C 2.660156 -6.476562 2.429688 -5.878906 2.359375 -5.109375 L 6.703125 -5.109375 C 6.691406 -5.835938 6.519531 -6.425781 6.1875 -6.875 C 5.863281 -7.320312 5.347656 -7.546875 4.640625 -7.546875 Z M 4.640625 -7.546875 "/></g></g></g><g fill="#000000" fill-opacity="1"><g transform="translate(35.281989, 128.500061)"><g><path d="M 6.921875 -2.359375 C 6.921875 -1.523438 6.609375 -0.894531 5.984375 -0.46875 C 5.367188 -0.0507812 4.539062 0.15625 3.5 0.15625 C 2.90625 0.15625 2.394531 0.109375 1.96875 0.015625 C 1.539062 -0.078125 1.160156 -0.207031 0.828125 -0.375 L 0.828125 -1.65625 C 1.171875 -1.488281 1.582031 -1.332031 2.0625 -1.1875 C 2.550781 -1.039062 3.039062 -0.96875 3.53125 -0.96875 C 4.25 -0.96875 4.765625 -1.082031 5.078125 -1.3125 C 5.398438 -1.539062 5.5625 -1.847656 5.5625 -2.234375 C 5.5625 -2.441406 5.503906 -2.628906 5.390625 -2.796875 C 5.273438 -2.972656 5.0625 -3.144531 4.75 -3.3125 C 4.445312 -3.476562 4.015625 -3.671875 3.453125 -3.890625 C 2.898438 -4.097656 2.425781 -4.304688 2.03125 -4.515625 C 1.644531 -4.734375 1.34375 -4.988281 1.125 -5.28125 C 0.914062 -5.582031 0.8125 -5.96875 0.8125 -6.4375 C 0.8125 -7.15625 1.101562 -7.710938 1.6875 -8.109375 C 2.28125 -8.503906 3.054688 -8.703125 4.015625 -8.703125 C 4.535156 -8.703125 5.019531 -8.648438 5.46875 -8.546875 C 5.925781 -8.441406 6.347656 -8.300781 6.734375 -8.125 L 6.265625 -7.015625 C 5.898438 -7.160156 5.519531 -7.285156 5.125 -7.390625 C 4.738281 -7.492188 4.335938 -7.546875 3.921875 -7.546875 C 3.347656 -7.546875 2.910156 -7.453125 2.609375 -7.265625 C 2.304688 -7.085938 2.15625 -6.835938 2.15625 -6.515625 C 2.15625 -6.273438 2.222656 -6.070312 2.359375 -5.90625 C 2.492188 -5.75 2.722656 -5.59375 3.046875 -5.4375 C 3.367188 -5.28125 3.800781 -5.097656 4.34375 -4.890625 C 4.882812 -4.691406 5.347656 -4.484375 5.734375 -4.265625 C 6.117188 -4.054688 6.410156 -3.800781 6.609375 -3.5 C 6.816406 -3.195312 6.921875 -2.816406 6.921875 -2.359375 Z M 6.921875 -2.359375 "/></g></g></g><g fill="#000000" fill-opacity="1"><g transform="translate(44.061853, 128.500061)"><g><path d="M 4.203125 -0.984375 C 4.421875 -0.984375 4.640625 -1 4.859375 -1.03125 C 5.085938 -1.0625 5.269531 -1.101562 5.40625 -1.15625 L 5.40625 -0.09375 C 5.257812 -0.0195312 5.046875 0.0351562 4.765625 0.078125 C 4.484375 0.128906 4.21875 0.15625 3.96875 0.15625 C 3.519531 0.15625 3.109375 0.0820312 2.734375 -0.0625 C 2.359375 -0.21875 2.050781 -0.488281 1.8125 -0.875 C 1.582031 -1.257812 1.46875 -1.796875 1.46875 -2.484375 L 1.46875 -7.453125 L 0.25 -7.453125 L 0.25 -8.125 L 1.484375 -8.6875 L 2.046875 -10.5 L 2.875 -10.5 L 2.875 -8.546875 L 5.34375 -8.546875 L 5.34375 -7.453125 L 2.875 -7.453125 L 2.875 -2.515625 C 2.875 -1.992188 3 -1.609375 3.25 -1.359375 C 3.5 -1.109375 3.816406 -0.984375 4.203125 -0.984375 Z M 4.203125 -0.984375 "/></g></g></g><g fill="#000000" fill-opacity="1"><g transform="translate(50.961613, 128.500061)"><g/></g></g><g fill="#000000" fill-opacity="1"><g transform="translate(53.702837, 128.500061)"><g><path d="M 5.140625 0 L 3.71875 0 L 3.71875 -10.125 L 0.15625 -10.125 L 0.15625 -11.375 L 8.6875 -11.375 L 8.6875 -10.125 L 5.140625 -10.125 Z M 5.140625 0 "/></g></g></g><g fill="#000000" fill-opacity="1"><g transform="translate(63.709549, 128.500061)"><g><path d="M 4.65625 -8.703125 C 5.375 -8.703125 6 -8.539062 6.53125 -8.21875 C 7.0625 -7.90625 7.46875 -7.457031 7.75 -6.875 C 8.03125 -6.300781 8.171875 -5.625 8.171875 -4.84375 L 8.171875 -4 L 2.328125 -4 C 2.347656 -3.03125 2.59375 -2.289062 3.0625 -1.78125 C 3.539062 -1.28125 4.203125 -1.03125 5.046875 -1.03125 C 5.585938 -1.03125 6.066406 -1.082031 6.484375 -1.1875 C 6.910156 -1.289062 7.347656 -1.4375 7.796875 -1.625 L 7.796875 -0.40625 C 7.359375 -0.207031 6.925781 -0.0664062 6.5 0.015625 C 6.070312 0.109375 5.566406 0.15625 4.984375 0.15625 C 4.171875 0.15625 3.453125 -0.00390625 2.828125 -0.328125 C 2.210938 -0.660156 1.734375 -1.148438 1.390625 -1.796875 C 1.046875 -2.441406 0.875 -3.242188 0.875 -4.203125 C 0.875 -5.140625 1.03125 -5.941406 1.34375 -6.609375 C 1.65625 -7.285156 2.09375 -7.800781 2.65625 -8.15625 C 3.226562 -8.519531 3.894531 -8.703125 4.65625 -8.703125 Z M 4.640625 -7.546875 C 3.972656 -7.546875 3.441406 -7.332031 3.046875 -6.90625 C 2.660156 -6.476562 2.429688 -5.878906 2.359375 -5.109375 L 6.703125 -5.109375 C 6.691406 -5.835938 6.519531 -6.425781 6.1875 -6.875 C 5.863281 -7.320312 5.347656 -7.546875 4.640625 -7.546875 Z M 4.640625 -7.546875 "/></g></g></g><g fill="#000000" fill-opacity="1"><g transform="translate(73.843718, 128.500061)"><g><path d="M 4.78125 0.15625 C 4.019531 0.15625 3.34375 0.00390625 2.75 -0.296875 C 2.164062 -0.609375 1.707031 -1.085938 1.375 -1.734375 C 1.039062 -2.378906 0.875 -3.207031 0.875 -4.21875 C 0.875 -5.269531 1.046875 -6.125 1.390625 -6.78125 C 1.734375 -7.445312 2.207031 -7.929688 2.8125 -8.234375 C 3.425781 -8.546875 4.113281 -8.703125 4.875 -8.703125 C 5.300781 -8.703125 5.71875 -8.65625 6.125 -8.5625 C 6.53125 -8.476562 6.863281 -8.367188 7.125 -8.234375 L 6.6875 -7.078125 C 6.4375 -7.171875 6.140625 -7.257812 5.796875 -7.34375 C 5.460938 -7.425781 5.144531 -7.46875 4.84375 -7.46875 C 3.164062 -7.46875 2.328125 -6.390625 2.328125 -4.234375 C 2.328125 -3.203125 2.53125 -2.410156 2.9375 -1.859375 C 3.34375 -1.316406 3.953125 -1.046875 4.765625 -1.046875 C 5.222656 -1.046875 5.628906 -1.09375 5.984375 -1.1875 C 6.347656 -1.289062 6.679688 -1.410156 6.984375 -1.546875 L 6.984375 -0.296875 C 6.691406 -0.148438 6.375 -0.0390625 6.03125 0.03125 C 5.6875 0.113281 5.269531 0.15625 4.78125 0.15625 Z M 4.78125 0.15625 "/></g></g></g><g fill="#000000" fill-opacity="1"><g transform="translate(82.639518, 128.500061)"><g><path d="M 2.75 -12.109375 L 2.75 -8.5625 C 2.75 -8.132812 2.722656 -7.734375 2.671875 -7.359375 L 2.765625 -7.359375 C 3.046875 -7.796875 3.421875 -8.125 3.890625 -8.34375 C 4.367188 -8.570312 4.882812 -8.6875 5.4375 -8.6875 C 6.46875 -8.6875 7.242188 -8.4375 7.765625 -7.9375 C 8.296875 -7.445312 8.5625 -6.65625 8.5625 -5.5625 L 8.5625 0 L 7.171875 0 L 7.171875 -5.46875 C 7.171875 -6.832031 6.535156 -7.515625 5.265625 -7.515625 C 4.304688 -7.515625 3.644531 -7.242188 3.28125 -6.703125 C 2.925781 -6.171875 2.75 -5.410156 2.75 -4.421875 L 2.75 0 L 1.359375 0 L 1.359375 -12.109375 Z M 2.75 -12.109375 "/></g></g></g><g fill="#000000" fill-opacity="1"><g transform="translate(93.634079, 128.500061)"><g/></g></g><g fill="#000000" fill-opacity="1"><g transform="translate(96.375303, 128.500061)"><g><path d="M 14.609375 -11.375 L 11.59375 0 L 10.140625 0 L 7.921875 -7.453125 C 7.828125 -7.753906 7.738281 -8.0625 7.65625 -8.375 C 7.570312 -8.6875 7.5 -8.960938 7.4375 -9.203125 C 7.382812 -9.441406 7.351562 -9.609375 7.34375 -9.703125 C 7.332031 -9.566406 7.273438 -9.269531 7.171875 -8.8125 C 7.066406 -8.363281 6.945312 -7.894531 6.8125 -7.40625 L 4.65625 0 L 3.203125 0 L 0.1875 -11.375 L 1.6875 -11.375 L 3.453125 -4.4375 C 3.585938 -3.945312 3.695312 -3.472656 3.78125 -3.015625 C 3.875 -2.554688 3.945312 -2.125 4 -1.71875 C 4.050781 -2.132812 4.128906 -2.585938 4.234375 -3.078125 C 4.347656 -3.566406 4.472656 -4.046875 4.609375 -4.515625 L 6.609375 -11.375 L 8.09375 -11.375 L 10.1875 -4.46875 C 10.332031 -3.976562 10.457031 -3.488281 10.5625 -3 C 10.664062 -2.507812 10.75 -2.082031 10.8125 -1.71875 C 10.851562 -2.113281 10.921875 -2.539062 11.015625 -3 C 11.117188 -3.46875 11.234375 -3.953125 11.359375 -4.453125 L 13.109375 -11.375 Z M 14.609375 -11.375 "/></g></g></g><g fill="#000000" fill-opacity="1"><g transform="translate(112.340974, 128.500061)"><g><path d="M 4.65625 -8.703125 C 5.375 -8.703125 6 -8.539062 6.53125 -8.21875 C 7.0625 -7.90625 7.46875 -7.457031 7.75 -6.875 C 8.03125 -6.300781 8.171875 -5.625 8.171875 -4.84375 L 8.171875 -4 L 2.328125 -4 C 2.347656 -3.03125 2.59375 -2.289062 3.0625 -1.78125 C 3.539062 -1.28125 4.203125 -1.03125 5.046875 -1.03125 C 5.585938 -1.03125 6.066406 -1.082031 6.484375 -1.1875 C 6.910156 -1.289062 7.347656 -1.4375 7.796875 -1.625 L 7.796875 -0.40625 C 7.359375 -0.207031 6.925781 -0.0664062 6.5 0.015625 C 6.070312 0.109375 5.566406 0.15625 4.984375 0.15625 C 4.171875 0.15625 3.453125 -0.00390625 2.828125 -0.328125 C 2.210938 -0.660156 1.734375 -1.148438 1.390625 -1.796875 C 1.046875 -2.441406 0.875 -3.242188 0.875 -4.203125 C 0.875 -5.140625 1.03125 -5.941406 1.34375 -6.609375 C 1.65625 -7.285156 2.09375 -7.800781 2.65625 -8.15625 C 3.226562 -8.519531 3.894531 -8.703125 4.65625 -8.703125 Z M 4.640625 -7.546875 C 3.972656 -7.546875 3.441406 -7.332031 3.046875 -6.90625 C 2.660156 -6.476562 2.429688 -5.878906 2.359375 -5.109375 L 6.703125 -5.109375 C 6.691406 -5.835938 6.519531 -6.425781 6.1875 -6.875 C 5.863281 -7.320312 5.347656 -7.546875 4.640625 -7.546875 Z M 4.640625 -7.546875 "/></g></g></g><g fill="#000000" fill-opacity="1"><g transform="translate(122.475141, 128.500061)"><g><path d="M 2.75 -12.109375 L 2.75 -9.171875 C 2.75 -8.804688 2.738281 -8.46875 2.71875 -8.15625 C 2.707031 -7.84375 2.691406 -7.59375 2.671875 -7.40625 L 2.75 -7.40625 C 3 -7.769531 3.335938 -8.070312 3.765625 -8.3125 C 4.191406 -8.5625 4.738281 -8.6875 5.40625 -8.6875 C 6.46875 -8.6875 7.316406 -8.316406 7.953125 -7.578125 C 8.597656 -6.835938 8.921875 -5.734375 8.921875 -4.265625 C 8.921875 -2.804688 8.597656 -1.703125 7.953125 -0.953125 C 7.304688 -0.210938 6.457031 0.15625 5.40625 0.15625 C 4.738281 0.15625 4.191406 0.0351562 3.765625 -0.203125 C 3.335938 -0.453125 3 -0.742188 2.75 -1.078125 L 2.640625 -1.078125 L 2.359375 0 L 1.359375 0 L 1.359375 -12.109375 Z M 5.15625 -7.515625 C 4.25 -7.515625 3.617188 -7.253906 3.265625 -6.734375 C 2.921875 -6.210938 2.75 -5.40625 2.75 -4.3125 L 2.75 -4.25 C 2.75 -3.195312 2.921875 -2.390625 3.265625 -1.828125 C 3.617188 -1.273438 4.265625 -1 5.203125 -1 C 5.960938 -1 6.53125 -1.28125 6.90625 -1.84375 C 7.28125 -2.40625 7.46875 -3.21875 7.46875 -4.28125 C 7.46875 -6.4375 6.695312 -7.515625 5.15625 -7.515625 Z M 5.15625 -7.515625 "/></g></g></g><g fill="#000000" fill-opacity="1"><g transform="translate(133.421893, 128.500061)"><g><path d="M 6.921875 -2.359375 C 6.921875 -1.523438 6.609375 -0.894531 5.984375 -0.46875 C 5.367188 -0.0507812 4.539062 0.15625 3.5 0.15625 C 2.90625 0.15625 2.394531 0.109375 1.96875 0.015625 C 1.539062 -0.078125 1.160156 -0.207031 0.828125 -0.375 L 0.828125 -1.65625 C 1.171875 -1.488281 1.582031 -1.332031 2.0625 -1.1875 C 2.550781 -1.039062 3.039062 -0.96875 3.53125 -0.96875 C 4.25 -0.96875 4.765625 -1.082031 5.078125 -1.3125 C 5.398438 -1.539062 5.5625 -1.847656 5.5625 -2.234375 C 5.5625 -2.441406 5.503906 -2.628906 5.390625 -2.796875 C 5.273438 -2.972656 5.0625 -3.144531 4.75 -3.3125 C 4.445312 -3.476562 4.015625 -3.671875 3.453125 -3.890625 C 2.898438 -4.097656 2.425781 -4.304688 2.03125 -4.515625 C 1.644531 -4.734375 1.34375 -4.988281 1.125 -5.28125 C 0.914062 -5.582031 0.8125 -5.96875 0.8125 -6.4375 C 0.8125 -7.15625 1.101562 -7.710938 1.6875 -8.109375 C 2.28125 -8.503906 3.054688 -8.703125 4.015625 -8.703125 C 4.535156 -8.703125 5.019531 -8.648438 5.46875 -8.546875 C 5.925781 -8.441406 6.347656 -8.300781 6.734375 -8.125 L 6.265625 -7.015625 C 5.898438 -7.160156 5.519531 -7.285156 5.125 -7.390625 C 4.738281 -7.492188 4.335938 -7.546875 3.921875 -7.546875 C 3.347656 -7.546875 2.910156 -7.453125 2.609375 -7.265625 C 2.304688 -7.085938 2.15625 -6.835938 2.15625 -6.515625 C 2.15625 -6.273438 2.222656 -6.070312 2.359375 -5.90625 C 2.492188 -5.75 2.722656 -5.59375 3.046875 -5.4375 C 3.367188 -5.28125 3.800781 -5.097656 4.34375 -4.890625 C 4.882812 -4.691406 5.347656 -4.484375 5.734375 -4.265625 C 6.117188 -4.054688 6.410156 -3.800781 6.609375 -3.5 C 6.816406 -3.195312 6.921875 -2.816406 6.921875 -2.359375 Z M 6.921875 -2.359375 "/></g></g></g><g fill="#000000" fill-opacity="1"><g transform="translate(142.201752, 128.500061)"><g><path d="M 2.078125 -11.75 C 2.285156 -11.75 2.472656 -11.675781 2.640625 -11.53125 C 2.804688 -11.382812 2.890625 -11.160156 2.890625 -10.859375 C 2.890625 -10.546875 2.804688 -10.316406 2.640625 -10.171875 C 2.472656 -10.035156 2.285156 -9.96875 2.078125 -9.96875 C 1.835938 -9.96875 1.640625 -10.035156 1.484375 -10.171875 C 1.328125 -10.316406 1.25 -10.546875 1.25 -10.859375 C 1.25 -11.160156 1.328125 -11.382812 1.484375 -11.53125 C 1.640625 -11.675781 1.835938 -11.75 2.078125 -11.75 Z M 2.75 -8.546875 L 2.75 0 L 1.359375 0 L 1.359375 -8.546875 Z M 2.75 -8.546875 "/></g></g></g><g fill="#000000" fill-opacity="1"><g transform="translate(147.4604, 128.500061)"><g><path d="M 4.203125 -0.984375 C 4.421875 -0.984375 4.640625 -1 4.859375 -1.03125 C 5.085938 -1.0625 5.269531 -1.101562 5.40625 -1.15625 L 5.40625 -0.09375 C 5.257812 -0.0195312 5.046875 0.0351562 4.765625 0.078125 C 4.484375 0.128906 4.21875 0.15625 3.96875 0.15625 C 3.519531 0.15625 3.109375 0.0820312 2.734375 -0.0625 C 2.359375 -0.21875 2.050781 -0.488281 1.8125 -0.875 C 1.582031 -1.257812 1.46875 -1.796875 1.46875 -2.484375 L 1.46875 -7.453125 L 0.25 -7.453125 L 0.25 -8.125 L 1.484375 -8.6875 L 2.046875 -10.5 L 2.875 -10.5 L 2.875 -8.546875 L 5.34375 -8.546875 L 5.34375 -7.453125 L 2.875 -7.453125 L 2.875 -2.515625 C 2.875 -1.992188 3 -1.609375 3.25 -1.359375 C 3.5 -1.109375 3.816406 -0.984375 4.203125 -0.984375 Z M 4.203125 -0.984375 "/></g></g></g><g fill="#000000" fill-opacity="1"><g transform="translate(154.360154, 128.500061)"><g><path d="M 4.65625 -8.703125 C 5.375 -8.703125 6 -8.539062 6.53125 -8.21875 C 7.0625 -7.90625 7.46875 -7.457031 7.75 -6.875 C 8.03125 -6.300781 8.171875 -5.625 8.171875 -4.84375 L 8.171875 -4 L 2.328125 -4 C 2.347656 -3.03125 2.59375 -2.289062 3.0625 -1.78125 C 3.539062 -1.28125 4.203125 -1.03125 5.046875 -1.03125 C 5.585938 -1.03125 6.066406 -1.082031 6.484375 -1.1875 C 6.910156 -1.289062 7.347656 -1.4375 7.796875 -1.625 L 7.796875 -0.40625 C 7.359375 -0.207031 6.925781 -0.0664062 6.5 0.015625 C 6.070312 0.109375 5.566406 0.15625 4.984375 0.15625 C 4.171875 0.15625 3.453125 -0.00390625 2.828125 -0.328125 C 2.210938 -0.660156 1.734375 -1.148438 1.390625 -1.796875 C 1.046875 -2.441406 0.875 -3.242188 0.875 -4.203125 C 0.875 -5.140625 1.03125 -5.941406 1.34375 -6.609375 C 1.65625 -7.285156 2.09375 -7.800781 2.65625 -8.15625 C 3.226562 -8.519531 3.894531 -8.703125 4.65625 -8.703125 Z M 4.640625 -7.546875 C 3.972656 -7.546875 3.441406 -7.332031 3.046875 -6.90625 C 2.660156 -6.476562 2.429688 -5.878906 2.359375 -5.109375 L 6.703125 -5.109375 C 6.691406 -5.835938 6.519531 -6.425781 6.1875 -6.875 C 5.863281 -7.320312 5.347656 -7.546875 4.640625 -7.546875 Z M 4.640625 -7.546875 "/></g></g></g><g clip-path="url(#c81ac3eb73)"><path fill="#ffffff" d="M 11.664062 33.136719 L 165.335938 33.136719 L 165.335938 67.628906 L 11.664062 67.628906 Z M 11.664062 33.136719 " fill-opacity="1" fill-rule="nonzero"/></g><g fill="#000000" fill-opacity="1"><g transform="translate(5.5956, 61.851553)"><g><path d="M 22.78125 -25.023438 L 18.75 -25.023438 C 17.722656 -25.023438 17.457031 -24.71875 17.152344 -23.804688 L 12.015625 -8.0625 L 6.84375 -23.804688 C 6.542969 -24.71875 6.273438 -25.023438 5.285156 -25.023438 L 1.066406 -25.023438 C 0.34375 -25.023438 0.191406 -24.414062 0.378906 -23.921875 L 8.558594 -1.140625 C 9.011719 -0.152344 9.277344 0 10.117188 0 L 13.765625 0 C 14.601562 0 14.871094 -0.152344 15.324219 -1.140625 L 23.464844 -23.921875 C 23.65625 -24.414062 23.503906 -25.023438 22.78125 -25.023438 Z M 22.78125 -25.023438 "/></g></g></g><g fill="#000000" fill-opacity="1"><g transform="translate(28.221078, 61.851553)"><g><path d="M 13.691406 -5.210938 L 11.292969 -5.210938 L 11.292969 -19.738281 L 13.578125 -19.738281 C 14.453125 -19.738281 14.679688 -20.15625 14.679688 -20.839844 L 14.679688 -23.921875 C 14.679688 -24.605469 14.453125 -25.023438 13.578125 -25.023438 L 3.003906 -25.023438 C 2.128906 -25.023438 1.902344 -24.605469 1.902344 -23.921875 L 1.902344 -20.839844 C 1.902344 -20.15625 2.128906 -19.738281 3.003906 -19.738281 L 5.324219 -19.738281 L 5.324219 -5.210938 L 2.929688 -5.210938 C 2.054688 -5.210938 1.824219 -4.792969 1.824219 -4.105469 L 1.824219 -1.101562 C 1.824219 -0.417969 2.054688 0 2.929688 0 L 13.691406 0 C 14.566406 0 14.792969 -0.417969 14.792969 -1.101562 L 14.792969 -4.105469 C 14.792969 -4.792969 14.566406 -5.210938 13.691406 -5.210938 Z M 13.691406 -5.210938 "/></g></g></g><g fill="#000000" fill-opacity="1"><g transform="translate(43.545505, 61.851553)"><g><path d="M 14.601562 -14.527344 C 13.082031 -15.136719 7.492188 -15.972656 7.492188 -18.292969 C 7.492188 -20.003906 9.582031 -20.496094 10.839844 -20.496094 C 11.980469 -20.496094 13.347656 -20.15625 14.070312 -19.472656 C 14.527344 -19.015625 14.71875 -18.710938 14.871094 -18.332031 C 15.058594 -17.835938 15.175781 -17.304688 15.894531 -17.304688 L 19.625 -17.304688 C 20.496094 -17.304688 20.726562 -17.457031 20.726562 -18.367188 C 20.726562 -23.386719 15.441406 -25.59375 10.609375 -25.59375 C 5.855469 -25.402344 1.367188 -22.96875 1.367188 -18.027344 C 1.367188 -13.195312 4.90625 -11.675781 8.746094 -10.457031 C 11.980469 -9.429688 15.363281 -9.394531 15.363281 -7.261719 C 15.363281 -5.132812 13.691406 -4.675781 11.636719 -4.675781 C 10.230469 -4.675781 8.671875 -5.019531 7.910156 -5.933594 C 7.414062 -6.503906 7.226562 -6.996094 7.1875 -7.492188 C 7.113281 -8.441406 6.691406 -8.558594 5.820312 -8.558594 L 2.128906 -8.558594 C 1.253906 -8.558594 1.027344 -8.367188 1.027344 -7.492188 C 1.027344 -2.167969 6.503906 0.570312 11.257812 0.570312 C 17.113281 0.570312 21.371094 -2.015625 21.371094 -7.414062 C 21.371094 -12.585938 17.339844 -13.691406 14.601562 -14.527344 Z M 14.601562 -14.527344 "/></g></g></g><g fill="#000000" fill-opacity="1"><g transform="translate(64.992163, 61.851553)"><g><path d="M 13.691406 -5.210938 L 11.292969 -5.210938 L 11.292969 -19.738281 L 13.578125 -19.738281 C 14.453125 -19.738281 14.679688 -20.15625 14.679688 -20.839844 L 14.679688 -23.921875 C 14.679688 -24.605469 14.453125 -25.023438 13.578125 -25.023438 L 3.003906 -25.023438 C 2.128906 -25.023438 1.902344 -24.605469 1.902344 -23.921875 L 1.902344 -20.839844 C 1.902344 -20.15625 2.128906 -19.738281 3.003906 -19.738281 L 5.324219 -19.738281 L 5.324219 -5.210938 L 2.929688 -5.210938 C 2.054688 -5.210938 1.824219 -4.792969 1.824219 -4.105469 L 1.824219 -1.101562 C 1.824219 -0.417969 2.054688 0 2.929688 0 L 13.691406 0 C 14.566406 0 14.792969 -0.417969 14.792969 -1.101562 L 14.792969 -4.105469 C 14.792969 -4.792969 14.566406 -5.210938 13.691406 -5.210938 Z M 13.691406 -5.210938 "/></g></g></g><g fill="#000000" fill-opacity="1"><g transform="translate(80.316588, 61.851553)"><g><path d="M 19.738281 -25.023438 L 2.089844 -25.023438 C 1.21875 -25.023438 0.988281 -24.605469 0.988281 -23.921875 L 0.988281 -20.765625 C 0.988281 -20.078125 1.21875 -19.660156 2.089844 -19.660156 L 7.949219 -19.660156 L 7.949219 -1.101562 C 7.949219 -0.226562 8.367188 0 9.050781 0 L 12.816406 0 C 13.5 0 13.917969 -0.226562 13.917969 -1.101562 L 13.917969 -19.660156 L 19.738281 -19.660156 C 20.613281 -19.660156 20.839844 -20.078125 20.839844 -20.765625 L 20.839844 -23.921875 C 20.839844 -24.605469 20.613281 -25.023438 19.738281 -25.023438 Z M 19.738281 -25.023438 "/></g></g></g><g fill="#000000" fill-opacity="1"><g transform="translate(100.58443, 61.851553)"><g><path d="M 20.953125 -5.324219 L 8.824219 -5.324219 L 8.824219 -10.34375 L 19.015625 -10.34375 C 19.890625 -10.34375 20.117188 -10.761719 20.117188 -11.445312 L 20.117188 -14.414062 C 20.117188 -15.097656 19.890625 -15.515625 19.015625 -15.515625 L 8.824219 -15.515625 L 8.824219 -19.660156 L 20.308594 -19.660156 C 21.183594 -19.660156 21.410156 -20.078125 21.410156 -20.765625 L 21.410156 -23.921875 C 21.410156 -24.605469 21.183594 -25.023438 20.308594 -25.023438 L 3.917969 -25.023438 C 3.042969 -25.023438 2.8125 -24.605469 2.8125 -23.921875 L 2.8125 -1.101562 C 2.8125 -0.417969 3.042969 0 3.917969 0 L 20.953125 0 C 21.828125 0 22.058594 -0.417969 22.058594 -1.101562 L 22.058594 -4.222656 C 22.058594 -4.90625 21.828125 -5.324219 20.953125 -5.324219 Z M 20.953125 -5.324219 "/></g></g></g><g fill="#000000" fill-opacity="1"><g transform="translate(122.867662, 61.851553)"><g><path d="M 22.09375 -7.414062 C 22.09375 -8.328125 21.789062 -8.707031 20.953125 -8.707031 L 17.226562 -8.707031 C 16.390625 -8.707031 16.316406 -8.101562 16.199219 -7.339844 C 15.894531 -5.515625 14.261719 -4.753906 12.207031 -4.753906 C 9.699219 -4.753906 7.984375 -6.121094 7.984375 -8.558594 L 7.984375 -16.46875 C 7.984375 -18.863281 9.699219 -20.269531 12.207031 -20.269531 C 14.261719 -20.269531 15.324219 -19.699219 16.125 -18.445312 C 16.429688 -17.988281 16.46875 -17.265625 17.265625 -17.265625 L 20.917969 -17.265625 C 21.789062 -17.265625 22.09375 -17.457031 22.09375 -18.367188 C 21.601562 -23.199219 16.921875 -25.59375 12.207031 -25.59375 C 7.683594 -25.59375 2.015625 -22.96875 2.015625 -17 L 2.015625 -8.023438 C 2.015625 -2.054688 7.683594 0.570312 12.207031 0.570312 C 16.921875 0.570312 22.09375 -2.511719 22.09375 -7.414062 Z M 22.09375 -7.414062 "/></g></g></g><g fill="#000000" fill-opacity="1"><g transform="translate(145.341025, 61.851553)"><g><path d="M 22.132812 -25.023438 L 18.367188 -25.023438 C 17.683594 -25.023438 17.265625 -24.796875 17.265625 -23.921875 L 17.265625 -15.324219 L 8.785156 -15.324219 L 8.785156 -23.921875 C 8.785156 -24.796875 8.40625 -25.023438 7.683594 -25.023438 L 3.917969 -25.023438 C 3.234375 -25.023438 2.8125 -24.796875 2.8125 -23.921875 L 2.8125 -1.101562 C 2.8125 -0.226562 3.234375 0 3.917969 0 L 7.683594 0 C 8.40625 0 8.785156 -0.226562 8.785156 -1.101562 L 8.785156 -9.699219 L 17.265625 -9.699219 L 17.265625 -1.101562 C 17.265625 -0.226562 17.683594 0 18.367188 0 L 22.132812 0 C 22.816406 0 23.234375 -0.226562 23.234375 -1.101562 L 23.234375 -23.921875 C 23.234375 -24.796875 22.816406 -25.023438 22.132812 -25.023438 Z M 22.132812 -25.023438 "/></g></g></g></svg>