<svg xmlns="http://www.w3.org/2000/svg" xmlns:xlink="http://www.w3.org/1999/xlink" width="236" zoomAndPan="magnify" viewBox="0 0 177 135.000003" height="180" preserveAspectRatio="xMidYMid meet" version="1.0"><defs><filter x="0%" y="0%" width="100%" height="100%" id="59510628ed"><feColorMatrix values="0 0 0 0 1 0 0 0 0 1 0 0 0 0 1 0 0 0 1 0" color-interpolation-filters="sRGB"/></filter><g/><clipPath id="226784173f"><path d="M 35 0 L 142 0 L 142 96 L 35 96 Z M 35 0 " clip-rule="nonzero"/></clipPath><clipPath id="af5513f96c"><path d="M 88.5 0.433594 L 144.828125 56.761719 L 88.5 113.089844 L 32.171875 56.761719 Z M 88.5 0.433594 " clip-rule="nonzero"/></clipPath><clipPath id="4f545f2c13"><path d="M 88.5 0.433594 L 144.828125 56.761719 L 88.5 113.089844 L 32.171875 56.761719 Z M 88.5 0.433594 " clip-rule="nonzero"/></clipPath><clipPath id="b8989b26ec"><path d="M 78 92 L 99 92 L 99 114 L 78 114 Z M 78 92 " clip-rule="nonzero"/></clipPath><clipPath id="1a46b4e782"><path d="M 88.5 0.433594 L 144.828125 56.761719 L 88.5 113.089844 L 32.171875 56.761719 Z M 88.5 0.433594 " clip-rule="nonzero"/></clipPath><clipPath id="45c22e262d"><path d="M 88.5 0.433594 L 144.828125 56.761719 L 88.5 113.089844 L 32.171875 56.761719 Z M 88.5 0.433594 " clip-rule="nonzero"/></clipPath><mask id="51492b9a45"><g filter="url(#59510628ed)"><rect x="-17.7" width="212.4" fill="#000000" y="-13.5" height="162.000004" fill-opacity="0.57"/></g></mask><clipPath id="9fae1200f4"><path d="M 0.433594 0.0195312 L 34 0.0195312 L 34 33.609375 L 0.433594 33.609375 Z M 0.433594 0.0195312 " clip-rule="nonzero"/></clipPath><clipPath id="639f35f873"><path d="M 0.476562 22.890625 L 23.222656 0.148438 L 33.789062 10.714844 L 11.042969 33.457031 Z M 0.476562 22.890625 " clip-rule="nonzero"/></clipPath><clipPath id="8b5efd43fc"><path d="M 0.476562 22.890625 L 23.222656 0.148438 L 33.789062 10.714844 L 11.042969 33.457031 Z M 0.476562 22.890625 " clip-rule="nonzero"/></clipPath><clipPath id="b8456bd29e"><rect x="0" width="35" y="0" height="34"/></clipPath><mask id="d61e5d74ad"><g filter="url(#59510628ed)"><rect x="-17.7" width="212.4" fill="#000000" y="-13.5" height="162.000004" fill-opacity="0.57"/></g></mask><clipPath id="c62a7611e6"><path d="M 1 0.648438 L 27.121094 0.648438 L 27.121094 26.855469 L 1 26.855469 Z M 1 0.648438 " clip-rule="nonzero"/></clipPath><clipPath id="174a4671b4"><path d="M 11.4375 0.878906 L 27.039062 16.480469 L 16.703125 26.820312 L 1.101562 11.21875 Z M 11.4375 0.878906 " clip-rule="nonzero"/></clipPath><clipPath id="c5818b8828"><path d="M 11.4375 0.878906 L 27.039062 16.480469 L 16.703125 26.820312 L 1.101562 11.21875 Z M 11.4375 0.878906 " clip-rule="nonzero"/></clipPath><clipPath id="beb22d6d16"><rect x="0" width="28" y="0" height="27"/></clipPath><clipPath id="e0f524377a"><path d="M 62.214844 67.980469 L 81.417969 67.980469 L 81.417969 77.695312 L 62.214844 77.695312 Z M 62.214844 67.980469 " clip-rule="nonzero"/></clipPath><clipPath id="8c8ed49c1a"><path d="M 71.816406 67.980469 L 62.214844 67.980469 L 71.816406 77.695312 L 81.417969 77.695312 L 71.816406 67.980469 " clip-rule="nonzero"/></clipPath><clipPath id="ae32920f15"><path d="M 50.609375 67.980469 L 69.8125 67.980469 L 69.8125 77.695312 L 50.609375 77.695312 Z M 50.609375 67.980469 " clip-rule="nonzero"/></clipPath><clipPath id="30452e2bcd"><path d="M 60.210938 67.980469 L 50.609375 67.980469 L 60.210938 77.695312 L 69.8125 77.695312 L 60.210938 67.980469 " clip-rule="nonzero"/></clipPath><clipPath id="8df7dae191"><path d="M 53 35 L 74 35 L 74 43 L 53 43 Z M 53 35 " clip-rule="nonzero"/></clipPath><clipPath id="dcc316e715"><path d="M 73.65625 35.730469 L 60.078125 49.308594 L 53.207031 42.441406 L 66.785156 28.863281 Z M 73.65625 35.730469 " clip-rule="nonzero"/></clipPath><clipPath id="e9c56e6eac"><path d="M 66.867188 42.519531 L 73.65625 35.730469 L 59.996094 35.652344 L 53.207031 42.441406 L 66.867188 42.519531 " clip-rule="nonzero"/></clipPath><clipPath id="ba3c70dd6a"><path d="M 59 29 L 80 29 L 80 37 L 59 37 Z M 59 29 " clip-rule="nonzero"/></clipPath><clipPath id="e579f6f0df"><path d="M 79.917969 29.46875 L 66.339844 43.046875 L 59.472656 36.175781 L 73.050781 22.597656 Z M 79.917969 29.46875 " clip-rule="nonzero"/></clipPath><clipPath id="90947e9c80"><path d="M 73.128906 36.257812 L 79.917969 29.46875 L 66.261719 29.386719 L 59.472656 36.175781 L 73.128906 36.257812 " clip-rule="nonzero"/></clipPath><clipPath id="e22c44a566"><path d="M 46 35 L 68 35 L 68 43 L 46 43 Z M 46 35 " clip-rule="nonzero"/></clipPath><clipPath id="f8865a6af2"><path d="M 67.292969 35.730469 L 53.714844 49.308594 L 46.847656 42.441406 L 60.425781 28.863281 Z M 67.292969 35.730469 " clip-rule="nonzero"/></clipPath><clipPath id="46ddcbfd69"><path d="M 60.503906 42.519531 L 67.292969 35.730469 L 53.636719 35.652344 L 46.847656 42.441406 L 60.503906 42.519531 " clip-rule="nonzero"/></clipPath><clipPath id="4a8648e929"><path d="M 53 29 L 74 29 L 74 37 L 53 37 Z M 53 29 " clip-rule="nonzero"/></clipPath><clipPath id="f093e6e5d1"><path d="M 73.558594 29.46875 L 59.976562 43.046875 L 53.109375 36.175781 L 66.6875 22.597656 Z M 73.558594 29.46875 " clip-rule="nonzero"/></clipPath><clipPath id="a714205e78"><path d="M 66.769531 36.257812 L 73.558594 29.46875 L 59.898438 29.386719 L 53.109375 36.175781 L 66.769531 36.257812 " clip-rule="nonzero"/></clipPath><clipPath id="a197d28449"><path d="M 52.097656 69.101562 L 71.300781 69.101562 L 71.300781 78.816406 L 52.097656 78.816406 Z M 52.097656 69.101562 " clip-rule="nonzero"/></clipPath><clipPath id="3f0cf4f82c"><path d="M 61.699219 69.101562 L 52.097656 69.101562 L 61.699219 78.816406 L 71.300781 78.816406 L 61.699219 69.101562 " clip-rule="nonzero"/></clipPath><clipPath id="bb3099cb9c"><path d="M 53.355469 67.980469 L 72.558594 67.980469 L 72.558594 77.695312 L 53.355469 77.695312 Z M 53.355469 67.980469 " clip-rule="nonzero"/></clipPath><clipPath id="0def442731"><path d="M 62.957031 67.980469 L 53.355469 67.980469 L 62.957031 77.695312 L 72.558594 77.695312 L 62.957031 67.980469 " clip-rule="nonzero"/></clipPath><mask id="bf936b6984"><g filter="url(#59510628ed)"><rect x="-17.7" width="212.4" fill="#000000" y="-13.5" height="162.000004" fill-opacity="0.57"/></g></mask><clipPath id="86beb47187"><path d="M 0.191406 0.113281 L 30.6875 0.113281 L 30.6875 30.609375 L 0.191406 30.609375 Z M 0.191406 0.113281 " clip-rule="nonzero"/></clipPath><clipPath id="18e4b34177"><path d="M 10.941406 0.28125 L 30.550781 19.894531 L 19.984375 30.460938 L 0.375 10.847656 Z M 10.941406 0.28125 " clip-rule="nonzero"/></clipPath><clipPath id="c12167cf7a"><path d="M 10.941406 0.28125 L 30.550781 19.894531 L 19.984375 30.460938 L 0.375 10.847656 Z M 10.941406 0.28125 " clip-rule="nonzero"/></clipPath><clipPath id="a184585290"><rect x="0" width="31" y="0" height="31"/></clipPath><mask id="0a48ea1cb0"><g filter="url(#59510628ed)"><rect x="-17.7" width="212.4" fill="#000000" y="-13.5" height="162.000004" fill-opacity="0.57"/></g></mask><clipPath id="537fb48527"><path d="M 0.757812 0.648438 L 26.964844 0.648438 L 26.964844 26.855469 L 0.757812 26.855469 Z M 0.757812 0.648438 " clip-rule="nonzero"/></clipPath><clipPath id="0ccc793e41"><path d="M 26.914062 11.210938 L 11.3125 26.8125 L 0.976562 16.472656 L 16.574219 0.871094 Z M 26.914062 11.210938 " clip-rule="nonzero"/></clipPath><clipPath id="a665ab2c4d"><path d="M 26.914062 11.210938 L 11.3125 26.8125 L 0.976562 16.472656 L 16.574219 0.871094 Z M 26.914062 11.210938 " clip-rule="nonzero"/></clipPath><clipPath id="5b22a18615"><rect x="0" width="27" y="0" height="27"/></clipPath><clipPath id="cfab5477f9"><path d="M 111.609375 33.285156 L 130.8125 33.285156 L 130.8125 43 L 111.609375 43 Z M 111.609375 33.285156 " clip-rule="nonzero"/></clipPath><clipPath id="55390fe7b3"><path d="M 121.210938 33.285156 L 111.609375 33.285156 L 121.210938 43 L 130.8125 43 L 121.210938 33.285156 " clip-rule="nonzero"/></clipPath><clipPath id="d454095ccc"><path d="M 102.75 33.285156 L 121.953125 33.285156 L 121.953125 43 L 102.75 43 Z M 102.75 33.285156 " clip-rule="nonzero"/></clipPath><clipPath id="1f8a3cc3ee"><path d="M 112.351562 33.285156 L 102.75 33.285156 L 112.351562 43 L 121.953125 43 L 112.351562 33.285156 " clip-rule="nonzero"/></clipPath><clipPath id="e7e22b0fa1"><path d="M 99 73 L 120 73 L 120 81 L 99 81 Z M 99 73 " clip-rule="nonzero"/></clipPath><clipPath id="ebaeebc6fb"><path d="M 119.976562 73.738281 L 106.398438 87.316406 L 99.527344 80.445312 L 113.105469 66.867188 Z M 119.976562 73.738281 " clip-rule="nonzero"/></clipPath><clipPath id="039e562d4c"><path d="M 113.1875 80.527344 L 119.976562 73.738281 L 106.316406 73.65625 L 99.527344 80.445312 L 113.1875 80.527344 " clip-rule="nonzero"/></clipPath><clipPath id="47d15bc793"><path d="M 105 67 L 127 67 L 127 75 L 105 75 Z M 105 67 " clip-rule="nonzero"/></clipPath><clipPath id="ffe9bf7ef9"><path d="M 126.238281 67.476562 L 112.660156 81.054688 L 105.792969 74.183594 L 119.371094 60.605469 Z M 126.238281 67.476562 " clip-rule="nonzero"/></clipPath><clipPath id="e57814c238"><path d="M 119.449219 74.265625 L 126.238281 67.476562 L 112.582031 67.394531 L 105.792969 74.183594 L 119.449219 74.265625 " clip-rule="nonzero"/></clipPath><clipPath id="c6f1ca4e68"><path d="M 93 73 L 114 73 L 114 81 L 93 81 Z M 93 73 " clip-rule="nonzero"/></clipPath><clipPath id="ae7062130b"><path d="M 113.558594 73.738281 L 99.980469 87.316406 L 93.109375 80.445312 L 106.6875 66.867188 Z M 113.558594 73.738281 " clip-rule="nonzero"/></clipPath><clipPath id="1ba33fce71"><path d="M 106.769531 80.527344 L 113.558594 73.738281 L 99.898438 73.65625 L 93.109375 80.445312 L 106.769531 80.527344 " clip-rule="nonzero"/></clipPath><clipPath id="0ce8315fce"><path d="M 99 67 L 120 67 L 120 75 L 99 75 Z M 99 67 " clip-rule="nonzero"/></clipPath><clipPath id="466bd3dbc2"><path d="M 119.820312 67.476562 L 106.242188 81.054688 L 99.371094 74.183594 L 112.953125 60.605469 Z M 119.820312 67.476562 " clip-rule="nonzero"/></clipPath><clipPath id="9ac86078ab"><path d="M 113.03125 74.265625 L 119.820312 67.476562 L 106.164062 67.394531 L 99.371094 74.183594 L 113.03125 74.265625 " clip-rule="nonzero"/></clipPath></defs><g fill="#ffffff" fill-opacity="1"><g transform="translate(13.643405, 128.625692)"><g><path d="M 1.546875 -11.375 L 4.796875 -11.375 C 6.210938 -11.375 7.285156 -11.160156 8.015625 -10.734375 C 8.742188 -10.316406 9.109375 -9.59375 9.109375 -8.5625 C 9.109375 -7.882812 8.921875 -7.328125 8.546875 -6.890625 C 8.179688 -6.453125 7.648438 -6.171875 6.953125 -6.046875 L 6.953125 -5.953125 C 7.429688 -5.867188 7.863281 -5.726562 8.25 -5.53125 C 8.632812 -5.332031 8.9375 -5.046875 9.15625 -4.671875 C 9.382812 -4.296875 9.5 -3.816406 9.5 -3.234375 C 9.5 -2.203125 9.144531 -1.40625 8.4375 -0.84375 C 7.726562 -0.28125 6.765625 0 5.546875 0 L 1.546875 0 Z M 2.984375 -6.53125 L 5.078125 -6.53125 C 6.046875 -6.53125 6.710938 -6.6875 7.078125 -7 C 7.453125 -7.3125 7.640625 -7.78125 7.640625 -8.40625 C 7.640625 -9.03125 7.414062 -9.476562 6.96875 -9.75 C 6.53125 -10.019531 5.828125 -10.15625 4.859375 -10.15625 L 2.984375 -10.15625 Z M 2.984375 -5.34375 L 2.984375 -1.21875 L 5.28125 -1.21875 C 6.289062 -1.21875 6.988281 -1.410156 7.375 -1.796875 C 7.769531 -2.191406 7.96875 -2.707031 7.96875 -3.34375 C 7.96875 -3.9375 7.757812 -4.414062 7.34375 -4.78125 C 6.9375 -5.15625 6.207031 -5.34375 5.15625 -5.34375 Z M 2.984375 -5.34375 "/></g></g></g><g fill="#ffffff" fill-opacity="1"><g transform="translate(25.147817, 128.625692)"><g><path d="M 4.65625 -8.703125 C 5.375 -8.703125 6 -8.539062 6.53125 -8.21875 C 7.0625 -7.90625 7.46875 -7.457031 7.75 -6.875 C 8.03125 -6.300781 8.171875 -5.625 8.171875 -4.84375 L 8.171875 -4 L 2.328125 -4 C 2.347656 -3.03125 2.59375 -2.289062 3.0625 -1.78125 C 3.539062 -1.28125 4.203125 -1.03125 5.046875 -1.03125 C 5.585938 -1.03125 6.066406 -1.082031 6.484375 -1.1875 C 6.910156 -1.289062 7.347656 -1.4375 7.796875 -1.625 L 7.796875 -0.40625 C 7.359375 -0.207031 6.925781 -0.0664062 6.5 0.015625 C 6.070312 0.109375 5.566406 0.15625 4.984375 0.15625 C 4.171875 0.15625 3.453125 -0.00390625 2.828125 -0.328125 C 2.210938 -0.660156 1.734375 -1.148438 1.390625 -1.796875 C 1.046875 -2.441406 0.875 -3.242188 0.875 -4.203125 C 0.875 -5.140625 1.03125 -5.941406 1.34375 -6.609375 C 1.65625 -7.285156 2.09375 -7.800781 2.65625 -8.15625 C 3.226562 -8.519531 3.894531 -8.703125 4.65625 -8.703125 Z M 4.640625 -7.546875 C 3.972656 -7.546875 3.441406 -7.332031 3.046875 -6.90625 C 2.660156 -6.476562 2.429688 -5.878906 2.359375 -5.109375 L 6.703125 -5.109375 C 6.691406 -5.835938 6.519531 -6.425781 6.1875 -6.875 C 5.863281 -7.320312 5.347656 -7.546875 4.640625 -7.546875 Z M 4.640625 -7.546875 "/></g></g></g><g fill="#ffffff" fill-opacity="1"><g transform="translate(35.281989, 128.625692)"><g><path d="M 6.921875 -2.359375 C 6.921875 -1.523438 6.609375 -0.894531 5.984375 -0.46875 C 5.367188 -0.0507812 4.539062 0.15625 3.5 0.15625 C 2.90625 0.15625 2.394531 0.109375 1.96875 0.015625 C 1.539062 -0.078125 1.160156 -0.207031 0.828125 -0.375 L 0.828125 -1.65625 C 1.171875 -1.488281 1.582031 -1.332031 2.0625 -1.1875 C 2.550781 -1.039062 3.039062 -0.96875 3.53125 -0.96875 C 4.25 -0.96875 4.765625 -1.082031 5.078125 -1.3125 C 5.398438 -1.539062 5.5625 -1.847656 5.5625 -2.234375 C 5.5625 -2.441406 5.503906 -2.628906 5.390625 -2.796875 C 5.273438 -2.972656 5.0625 -3.144531 4.75 -3.3125 C 4.445312 -3.476562 4.015625 -3.671875 3.453125 -3.890625 C 2.898438 -4.097656 2.425781 -4.304688 2.03125 -4.515625 C 1.644531 -4.734375 1.34375 -4.988281 1.125 -5.28125 C 0.914062 -5.582031 0.8125 -5.96875 0.8125 -6.4375 C 0.8125 -7.15625 1.101562 -7.710938 1.6875 -8.109375 C 2.28125 -8.503906 3.054688 -8.703125 4.015625 -8.703125 C 4.535156 -8.703125 5.019531 -8.648438 5.46875 -8.546875 C 5.925781 -8.441406 6.347656 -8.300781 6.734375 -8.125 L 6.265625 -7.015625 C 5.898438 -7.160156 5.519531 -7.285156 5.125 -7.390625 C 4.738281 -7.492188 4.335938 -7.546875 3.921875 -7.546875 C 3.347656 -7.546875 2.910156 -7.453125 2.609375 -7.265625 C 2.304688 -7.085938 2.15625 -6.835938 2.15625 -6.515625 C 2.15625 -6.273438 2.222656 -6.070312 2.359375 -5.90625 C 2.492188 -5.75 2.722656 -5.59375 3.046875 -5.4375 C 3.367188 -5.28125 3.800781 -5.097656 4.34375 -4.890625 C 4.882812 -4.691406 5.347656 -4.484375 5.734375 -4.265625 C 6.117188 -4.054688 6.410156 -3.800781 6.609375 -3.5 C 6.816406 -3.195312 6.921875 -2.816406 6.921875 -2.359375 Z M 6.921875 -2.359375 "/></g></g></g><g fill="#ffffff" fill-opacity="1"><g transform="translate(44.061853, 128.625692)"><g><path d="M 4.203125 -0.984375 C 4.421875 -0.984375 4.640625 -1 4.859375 -1.03125 C 5.085938 -1.0625 5.269531 -1.101562 5.40625 -1.15625 L 5.40625 -0.09375 C 5.257812 -0.0195312 5.046875 0.0351562 4.765625 0.078125 C 4.484375 0.128906 4.21875 0.15625 3.96875 0.15625 C 3.519531 0.15625 3.109375 0.0820312 2.734375 -0.0625 C 2.359375 -0.21875 2.050781 -0.488281 1.8125 -0.875 C 1.582031 -1.257812 1.46875 -1.796875 1.46875 -2.484375 L 1.46875 -7.453125 L 0.25 -7.453125 L 0.25 -8.125 L 1.484375 -8.6875 L 2.046875 -10.5 L 2.875 -10.5 L 2.875 -8.546875 L 5.34375 -8.546875 L 5.34375 -7.453125 L 2.875 -7.453125 L 2.875 -2.515625 C 2.875 -1.992188 3 -1.609375 3.25 -1.359375 C 3.5 -1.109375 3.816406 -0.984375 4.203125 -0.984375 Z M 4.203125 -0.984375 "/></g></g></g><g fill="#ffffff" fill-opacity="1"><g transform="translate(50.961613, 128.625692)"><g/></g></g><g fill="#ffffff" fill-opacity="1"><g transform="translate(53.702837, 128.625692)"><g><path d="M 5.140625 0 L 3.71875 0 L 3.71875 -10.125 L 0.15625 -10.125 L 0.15625 -11.375 L 8.6875 -11.375 L 8.6875 -10.125 L 5.140625 -10.125 Z M 5.140625 0 "/></g></g></g><g fill="#ffffff" fill-opacity="1"><g transform="translate(63.709549, 128.625692)"><g><path d="M 4.65625 -8.703125 C 5.375 -8.703125 6 -8.539062 6.53125 -8.21875 C 7.0625 -7.90625 7.46875 -7.457031 7.75 -6.875 C 8.03125 -6.300781 8.171875 -5.625 8.171875 -4.84375 L 8.171875 -4 L 2.328125 -4 C 2.347656 -3.03125 2.59375 -2.289062 3.0625 -1.78125 C 3.539062 -1.28125 4.203125 -1.03125 5.046875 -1.03125 C 5.585938 -1.03125 6.066406 -1.082031 6.484375 -1.1875 C 6.910156 -1.289062 7.347656 -1.4375 7.796875 -1.625 L 7.796875 -0.40625 C 7.359375 -0.207031 6.925781 -0.0664062 6.5 0.015625 C 6.070312 0.109375 5.566406 0.15625 4.984375 0.15625 C 4.171875 0.15625 3.453125 -0.00390625 2.828125 -0.328125 C 2.210938 -0.660156 1.734375 -1.148438 1.390625 -1.796875 C 1.046875 -2.441406 0.875 -3.242188 0.875 -4.203125 C 0.875 -5.140625 1.03125 -5.941406 1.34375 -6.609375 C 1.65625 -7.285156 2.09375 -7.800781 2.65625 -8.15625 C 3.226562 -8.519531 3.894531 -8.703125 4.65625 -8.703125 Z M 4.640625 -7.546875 C 3.972656 -7.546875 3.441406 -7.332031 3.046875 -6.90625 C 2.660156 -6.476562 2.429688 -5.878906 2.359375 -5.109375 L 6.703125 -5.109375 C 6.691406 -5.835938 6.519531 -6.425781 6.1875 -6.875 C 5.863281 -7.320312 5.347656 -7.546875 4.640625 -7.546875 Z M 4.640625 -7.546875 "/></g></g></g><g fill="#ffffff" fill-opacity="1"><g transform="translate(73.843718, 128.625692)"><g><path d="M 4.78125 0.15625 C 4.019531 0.15625 3.34375 0.00390625 2.75 -0.296875 C 2.164062 -0.609375 1.707031 -1.085938 1.375 -1.734375 C 1.039062 -2.378906 0.875 -3.207031 0.875 -4.21875 C 0.875 -5.269531 1.046875 -6.125 1.390625 -6.78125 C 1.734375 -7.445312 2.207031 -7.929688 2.8125 -8.234375 C 3.425781 -8.546875 4.113281 -8.703125 4.875 -8.703125 C 5.300781 -8.703125 5.71875 -8.65625 6.125 -8.5625 C 6.53125 -8.476562 6.863281 -8.367188 7.125 -8.234375 L 6.6875 -7.078125 C 6.4375 -7.171875 6.140625 -7.257812 5.796875 -7.34375 C 5.460938 -7.425781 5.144531 -7.46875 4.84375 -7.46875 C 3.164062 -7.46875 2.328125 -6.390625 2.328125 -4.234375 C 2.328125 -3.203125 2.53125 -2.410156 2.9375 -1.859375 C 3.34375 -1.316406 3.953125 -1.046875 4.765625 -1.046875 C 5.222656 -1.046875 5.628906 -1.09375 5.984375 -1.1875 C 6.347656 -1.289062 6.679688 -1.410156 6.984375 -1.546875 L 6.984375 -0.296875 C 6.691406 -0.148438 6.375 -0.0390625 6.03125 0.03125 C 5.6875 0.113281 5.269531 0.15625 4.78125 0.15625 Z M 4.78125 0.15625 "/></g></g></g><g fill="#ffffff" fill-opacity="1"><g transform="translate(82.639518, 128.625692)"><g><path d="M 2.75 -12.109375 L 2.75 -8.5625 C 2.75 -8.132812 2.722656 -7.734375 2.671875 -7.359375 L 2.765625 -7.359375 C 3.046875 -7.796875 3.421875 -8.125 3.890625 -8.34375 C 4.367188 -8.570312 4.882812 -8.6875 5.4375 -8.6875 C 6.46875 -8.6875 7.242188 -8.4375 7.765625 -7.9375 C 8.296875 -7.445312 8.5625 -6.65625 8.5625 -5.5625 L 8.5625 0 L 7.171875 0 L 7.171875 -5.46875 C 7.171875 -6.832031 6.535156 -7.515625 5.265625 -7.515625 C 4.304688 -7.515625 3.644531 -7.242188 3.28125 -6.703125 C 2.925781 -6.171875 2.75 -5.410156 2.75 -4.421875 L 2.75 0 L 1.359375 0 L 1.359375 -12.109375 Z M 2.75 -12.109375 "/></g></g></g><g fill="#ffffff" fill-opacity="1"><g transform="translate(93.634079, 128.625692)"><g/></g></g><g fill="#ffffff" fill-opacity="1"><g transform="translate(96.375303, 128.625692)"><g><path d="M 14.609375 -11.375 L 11.59375 0 L 10.140625 0 L 7.921875 -7.453125 C 7.828125 -7.753906 7.738281 -8.0625 7.65625 -8.375 C 7.570312 -8.6875 7.5 -8.960938 7.4375 -9.203125 C 7.382812 -9.441406 7.351562 -9.609375 7.34375 -9.703125 C 7.332031 -9.566406 7.273438 -9.269531 7.171875 -8.8125 C 7.066406 -8.363281 6.945312 -7.894531 6.8125 -7.40625 L 4.65625 0 L 3.203125 0 L 0.1875 -11.375 L 1.6875 -11.375 L 3.453125 -4.4375 C 3.585938 -3.945312 3.695312 -3.472656 3.78125 -3.015625 C 3.875 -2.554688 3.945312 -2.125 4 -1.71875 C 4.050781 -2.132812 4.128906 -2.585938 4.234375 -3.078125 C 4.347656 -3.566406 4.472656 -4.046875 4.609375 -4.515625 L 6.609375 -11.375 L 8.09375 -11.375 L 10.1875 -4.46875 C 10.332031 -3.976562 10.457031 -3.488281 10.5625 -3 C 10.664062 -2.507812 10.75 -2.082031 10.8125 -1.71875 C 10.851562 -2.113281 10.921875 -2.539062 11.015625 -3 C 11.117188 -3.46875 11.234375 -3.953125 11.359375 -4.453125 L 13.109375 -11.375 Z M 14.609375 -11.375 "/></g></g></g><g fill="#ffffff" fill-opacity="1"><g transform="translate(112.340974, 128.625692)"><g><path d="M 4.65625 -8.703125 C 5.375 -8.703125 6 -8.539062 6.53125 -8.21875 C 7.0625 -7.90625 7.46875 -7.457031 7.75 -6.875 C 8.03125 -6.300781 8.171875 -5.625 8.171875 -4.84375 L 8.171875 -4 L 2.328125 -4 C 2.347656 -3.03125 2.59375 -2.289062 3.0625 -1.78125 C 3.539062 -1.28125 4.203125 -1.03125 5.046875 -1.03125 C 5.585938 -1.03125 6.066406 -1.082031 6.484375 -1.1875 C 6.910156 -1.289062 7.347656 -1.4375 7.796875 -1.625 L 7.796875 -0.40625 C 7.359375 -0.207031 6.925781 -0.0664062 6.5 0.015625 C 6.070312 0.109375 5.566406 0.15625 4.984375 0.15625 C 4.171875 0.15625 3.453125 -0.00390625 2.828125 -0.328125 C 2.210938 -0.660156 1.734375 -1.148438 1.390625 -1.796875 C 1.046875 -2.441406 0.875 -3.242188 0.875 -4.203125 C 0.875 -5.140625 1.03125 -5.941406 1.34375 -6.609375 C 1.65625 -7.285156 2.09375 -7.800781 2.65625 -8.15625 C 3.226562 -8.519531 3.894531 -8.703125 4.65625 -8.703125 Z M 4.640625 -7.546875 C 3.972656 -7.546875 3.441406 -7.332031 3.046875 -6.90625 C 2.660156 -6.476562 2.429688 -5.878906 2.359375 -5.109375 L 6.703125 -5.109375 C 6.691406 -5.835938 6.519531 -6.425781 6.1875 -6.875 C 5.863281 -7.320312 5.347656 -7.546875 4.640625 -7.546875 Z M 4.640625 -7.546875 "/></g></g></g><g fill="#ffffff" fill-opacity="1"><g transform="translate(122.475141, 128.625692)"><g><path d="M 2.75 -12.109375 L 2.75 -9.171875 C 2.75 -8.804688 2.738281 -8.46875 2.71875 -8.15625 C 2.707031 -7.84375 2.691406 -7.59375 2.671875 -7.40625 L 2.75 -7.40625 C 3 -7.769531 3.335938 -8.070312 3.765625 -8.3125 C 4.191406 -8.5625 4.738281 -8.6875 5.40625 -8.6875 C 6.46875 -8.6875 7.316406 -8.316406 7.953125 -7.578125 C 8.597656 -6.835938 8.921875 -5.734375 8.921875 -4.265625 C 8.921875 -2.804688 8.597656 -1.703125 7.953125 -0.953125 C 7.304688 -0.210938 6.457031 0.15625 5.40625 0.15625 C 4.738281 0.15625 4.191406 0.0351562 3.765625 -0.203125 C 3.335938 -0.453125 3 -0.742188 2.75 -1.078125 L 2.640625 -1.078125 L 2.359375 0 L 1.359375 0 L 1.359375 -12.109375 Z M 5.15625 -7.515625 C 4.25 -7.515625 3.617188 -7.253906 3.265625 -6.734375 C 2.921875 -6.210938 2.75 -5.40625 2.75 -4.3125 L 2.75 -4.25 C 2.75 -3.195312 2.921875 -2.390625 3.265625 -1.828125 C 3.617188 -1.273438 4.265625 -1 5.203125 -1 C 5.960938 -1 6.53125 -1.28125 6.90625 -1.84375 C 7.28125 -2.40625 7.46875 -3.21875 7.46875 -4.28125 C 7.46875 -6.4375 6.695312 -7.515625 5.15625 -7.515625 Z M 5.15625 -7.515625 "/></g></g></g><g fill="#ffffff" fill-opacity="1"><g transform="translate(133.421893, 128.625692)"><g><path d="M 6.921875 -2.359375 C 6.921875 -1.523438 6.609375 -0.894531 5.984375 -0.46875 C 5.367188 -0.0507812 4.539062 0.15625 3.5 0.15625 C 2.90625 0.15625 2.394531 0.109375 1.96875 0.015625 C 1.539062 -0.078125 1.160156 -0.207031 0.828125 -0.375 L 0.828125 -1.65625 C 1.171875 -1.488281 1.582031 -1.332031 2.0625 -1.1875 C 2.550781 -1.039062 3.039062 -0.96875 3.53125 -0.96875 C 4.25 -0.96875 4.765625 -1.082031 5.078125 -1.3125 C 5.398438 -1.539062 5.5625 -1.847656 5.5625 -2.234375 C 5.5625 -2.441406 5.503906 -2.628906 5.390625 -2.796875 C 5.273438 -2.972656 5.0625 -3.144531 4.75 -3.3125 C 4.445312 -3.476562 4.015625 -3.671875 3.453125 -3.890625 C 2.898438 -4.097656 2.425781 -4.304688 2.03125 -4.515625 C 1.644531 -4.734375 1.34375 -4.988281 1.125 -5.28125 C 0.914062 -5.582031 0.8125 -5.96875 0.8125 -6.4375 C 0.8125 -7.15625 1.101562 -7.710938 1.6875 -8.109375 C 2.28125 -8.503906 3.054688 -8.703125 4.015625 -8.703125 C 4.535156 -8.703125 5.019531 -8.648438 5.46875 -8.546875 C 5.925781 -8.441406 6.347656 -8.300781 6.734375 -8.125 L 6.265625 -7.015625 C 5.898438 -7.160156 5.519531 -7.285156 5.125 -7.390625 C 4.738281 -7.492188 4.335938 -7.546875 3.921875 -7.546875 C 3.347656 -7.546875 2.910156 -7.453125 2.609375 -7.265625 C 2.304688 -7.085938 2.15625 -6.835938 2.15625 -6.515625 C 2.15625 -6.273438 2.222656 -6.070312 2.359375 -5.90625 C 2.492188 -5.75 2.722656 -5.59375 3.046875 -5.4375 C 3.367188 -5.28125 3.800781 -5.097656 4.34375 -4.890625 C 4.882812 -4.691406 5.347656 -4.484375 5.734375 -4.265625 C 6.117188 -4.054688 6.410156 -3.800781 6.609375 -3.5 C 6.816406 -3.195312 6.921875 -2.816406 6.921875 -2.359375 Z M 6.921875 -2.359375 "/></g></g></g><g fill="#ffffff" fill-opacity="1"><g transform="translate(142.201752, 128.625692)"><g><path d="M 2.078125 -11.75 C 2.285156 -11.75 2.472656 -11.675781 2.640625 -11.53125 C 2.804688 -11.382812 2.890625 -11.160156 2.890625 -10.859375 C 2.890625 -10.546875 2.804688 -10.316406 2.640625 -10.171875 C 2.472656 -10.035156 2.285156 -9.96875 2.078125 -9.96875 C 1.835938 -9.96875 1.640625 -10.035156 1.484375 -10.171875 C 1.328125 -10.316406 1.25 -10.546875 1.25 -10.859375 C 1.25 -11.160156 1.328125 -11.382812 1.484375 -11.53125 C 1.640625 -11.675781 1.835938 -11.75 2.078125 -11.75 Z M 2.75 -8.546875 L 2.75 0 L 1.359375 0 L 1.359375 -8.546875 Z M 2.75 -8.546875 "/></g></g></g><g fill="#ffffff" fill-opacity="1"><g transform="translate(147.4604, 128.625692)"><g><path d="M 4.203125 -0.984375 C 4.421875 -0.984375 4.640625 -1 4.859375 -1.03125 C 5.085938 -1.0625 5.269531 -1.101562 5.40625 -1.15625 L 5.40625 -0.09375 C 5.257812 -0.0195312 5.046875 0.0351562 4.765625 0.078125 C 4.484375 0.128906 4.21875 0.15625 3.96875 0.15625 C 3.519531 0.15625 3.109375 0.0820312 2.734375 -0.0625 C 2.359375 -0.21875 2.050781 -0.488281 1.8125 -0.875 C 1.582031 -1.257812 1.46875 -1.796875 1.46875 -2.484375 L 1.46875 -7.453125 L 0.25 -7.453125 L 0.25 -8.125 L 1.484375 -8.6875 L 2.046875 -10.5 L 2.875 -10.5 L 2.875 -8.546875 L 5.34375 -8.546875 L 5.34375 -7.453125 L 2.875 -7.453125 L 2.875 -2.515625 C 2.875 -1.992188 3 -1.609375 3.25 -1.359375 C 3.5 -1.109375 3.816406 -0.984375 4.203125 -0.984375 Z M 4.203125 -0.984375 "/></g></g></g><g fill="#ffffff" fill-opacity="1"><g transform="translate(154.360154, 128.625692)"><g><path d="M 4.65625 -8.703125 C 5.375 -8.703125 6 -8.539062 6.53125 -8.21875 C 7.0625 -7.90625 7.46875 -7.457031 7.75 -6.875 C 8.03125 -6.300781 8.171875 -5.625 8.171875 -4.84375 L 8.171875 -4 L 2.328125 -4 C 2.347656 -3.03125 2.59375 -2.289062 3.0625 -1.78125 C 3.539062 -1.28125 4.203125 -1.03125 5.046875 -1.03125 C 5.585938 -1.03125 6.066406 -1.082031 6.484375 -1.1875 C 6.910156 -1.289062 7.347656 -1.4375 7.796875 -1.625 L 7.796875 -0.40625 C 7.359375 -0.207031 6.925781 -0.0664062 6.5 0.015625 C 6.070312 0.109375 5.566406 0.15625 4.984375 0.15625 C 4.171875 0.15625 3.453125 -0.00390625 2.828125 -0.328125 C 2.210938 -0.660156 1.734375 -1.148438 1.390625 -1.796875 C 1.046875 -2.441406 0.875 -3.242188 0.875 -4.203125 C 0.875 -5.140625 1.03125 -5.941406 1.34375 -6.609375 C 1.65625 -7.285156 2.09375 -7.800781 2.65625 -8.15625 C 3.226562 -8.519531 3.894531 -8.703125 4.65625 -8.703125 Z M 4.640625 -7.546875 C 3.972656 -7.546875 3.441406 -7.332031 3.046875 -6.90625 C 2.660156 -6.476562 2.429688 -5.878906 2.359375 -5.109375 L 6.703125 -5.109375 C 6.691406 -5.835938 6.519531 -6.425781 6.1875 -6.875 C 5.863281 -7.320312 5.347656 -7.546875 4.640625 -7.546875 Z M 4.640625 -7.546875 "/></g></g></g><g clip-path="url(#226784173f)"><g clip-path="url(#af5513f96c)"><g clip-path="url(#4f545f2c13)"><path fill="#145da0" d="M 88.5 0.433594 L 35.976562 52.953125 L 78.222656 95.199219 L 88.5 84.921875 L 56.53125 52.953125 L 88.5 20.988281 L 120.464844 52.953125 L 88.5 84.921875 L 98.773438 95.199219 L 141.019531 52.953125 Z M 88.5 0.433594 " fill-opacity="1" fill-rule="nonzero"/></g></g></g><g clip-path="url(#b8989b26ec)"><g clip-path="url(#1a46b4e782)"><g clip-path="url(#45c22e262d)"><path fill="#145da0" d="M 88.5 92.535156 L 98.773438 102.8125 L 88.5 113.089844 L 78.222656 102.8125 Z M 88.5 92.535156 " fill-opacity="1" fill-rule="nonzero"/></g></g></g><g mask="url(#51492b9a45)"><g transform="matrix(1, 0, 0, 1, 35, 30)"><g clip-path="url(#b8456bd29e)"><g clip-path="url(#9fae1200f4)"><g clip-path="url(#639f35f873)"><g clip-path="url(#8b5efd43fc)"><path fill="#ffffff" d="M 0.476562 22.890625 L 23.222656 0.148438 L 33.789062 10.714844 L 11.042969 33.457031 Z M 0.476562 22.890625 " fill-opacity="1" fill-rule="nonzero"/></g></g></g></g></g></g><g mask="url(#d61e5d74ad)"><g transform="matrix(1, 0, 0, 1, 45, 52)"><g clip-path="url(#beb22d6d16)"><g clip-path="url(#c62a7611e6)"><g clip-path="url(#174a4671b4)"><g clip-path="url(#c5818b8828)"><path fill="#ffffff" d="M 11.4375 0.878906 L 27.039062 16.480469 L 16.703125 26.820312 L 1.101562 11.21875 Z M 11.4375 0.878906 " fill-opacity="1" fill-rule="nonzero"/></g></g></g></g></g></g><g clip-path="url(#e0f524377a)"><g clip-path="url(#8c8ed49c1a)"><path fill="#145da0" d="M 62.214844 67.980469 L 81.417969 67.980469 L 81.417969 77.695312 L 62.214844 77.695312 Z M 62.214844 67.980469 " fill-opacity="1" fill-rule="nonzero"/></g></g><g clip-path="url(#ae32920f15)"><g clip-path="url(#30452e2bcd)"><path fill="#145da0" d="M 50.609375 67.980469 L 69.8125 67.980469 L 69.8125 77.695312 L 50.609375 77.695312 Z M 50.609375 67.980469 " fill-opacity="1" fill-rule="nonzero"/></g></g><g clip-path="url(#8df7dae191)"><g clip-path="url(#dcc316e715)"><g clip-path="url(#e9c56e6eac)"><path fill="#145da0" d="M 73.65625 35.730469 L 60.078125 49.308594 L 53.207031 42.441406 L 66.785156 28.863281 Z M 73.65625 35.730469 " fill-opacity="1" fill-rule="nonzero"/></g></g></g><g clip-path="url(#ba3c70dd6a)"><g clip-path="url(#e579f6f0df)"><g clip-path="url(#90947e9c80)"><path fill="#145da0" d="M 79.917969 29.46875 L 66.339844 43.046875 L 59.472656 36.175781 L 73.050781 22.597656 Z M 79.917969 29.46875 " fill-opacity="1" fill-rule="nonzero"/></g></g></g><g clip-path="url(#e22c44a566)"><g clip-path="url(#f8865a6af2)"><g clip-path="url(#46ddcbfd69)"><path fill="#145da0" d="M 67.292969 35.730469 L 53.714844 49.308594 L 46.847656 42.441406 L 60.425781 28.863281 Z M 67.292969 35.730469 " fill-opacity="1" fill-rule="nonzero"/></g></g></g><g clip-path="url(#4a8648e929)"><g clip-path="url(#f093e6e5d1)"><g clip-path="url(#a714205e78)"><path fill="#145da0" d="M 73.558594 29.46875 L 59.976562 43.046875 L 53.109375 36.175781 L 66.6875 22.597656 Z M 73.558594 29.46875 " fill-opacity="1" fill-rule="nonzero"/></g></g></g><g clip-path="url(#a197d28449)"><g clip-path="url(#3f0cf4f82c)"><path fill="#145da0" d="M 52.097656 69.101562 L 71.300781 69.101562 L 71.300781 78.816406 L 52.097656 78.816406 Z M 52.097656 69.101562 " fill-opacity="1" fill-rule="nonzero"/></g></g><g clip-path="url(#bb3099cb9c)"><g clip-path="url(#0def442731)"><path fill="#145da0" d="M 53.355469 67.980469 L 72.558594 67.980469 L 72.558594 77.695312 L 53.355469 77.695312 Z M 53.355469 67.980469 " fill-opacity="1" fill-rule="nonzero"/></g></g><g mask="url(#bf936b6984)"><g transform="matrix(1, 0, 0, 1, 111, 33)"><g clip-path="url(#a184585290)"><g clip-path="url(#86beb47187)"><g clip-path="url(#18e4b34177)"><g clip-path="url(#c12167cf7a)"><path fill="#ffffff" d="M 10.941406 0.28125 L 30.550781 19.894531 L 19.984375 30.460938 L 0.375 10.847656 Z M 10.941406 0.28125 " fill-opacity="1" fill-rule="nonzero"/></g></g></g></g></g></g><g mask="url(#0a48ea1cb0)"><g transform="matrix(1, 0, 0, 1, 104, 52)"><g clip-path="url(#5b22a18615)"><g clip-path="url(#537fb48527)"><g clip-path="url(#0ccc793e41)"><g clip-path="url(#a665ab2c4d)"><path fill="#ffffff" d="M 26.914062 11.210938 L 11.3125 26.8125 L 0.976562 16.472656 L 16.574219 0.871094 Z M 26.914062 11.210938 " fill-opacity="1" fill-rule="nonzero"/></g></g></g></g></g></g><g clip-path="url(#cfab5477f9)"><g clip-path="url(#55390fe7b3)"><path fill="#145da0" d="M 111.609375 33.285156 L 130.8125 33.285156 L 130.8125 43 L 111.609375 43 Z M 111.609375 33.285156 " fill-opacity="1" fill-rule="nonzero"/></g></g><g clip-path="url(#d454095ccc)"><g clip-path="url(#1f8a3cc3ee)"><path fill="#145da0" d="M 102.75 33.285156 L 121.953125 33.285156 L 121.953125 43 L 102.75 43 Z M 102.75 33.285156 " fill-opacity="1" fill-rule="nonzero"/></g></g><g clip-path="url(#e7e22b0fa1)"><g clip-path="url(#ebaeebc6fb)"><g clip-path="url(#039e562d4c)"><path fill="#145da0" d="M 119.976562 73.738281 L 106.398438 87.316406 L 99.527344 80.445312 L 113.105469 66.867188 Z M 119.976562 73.738281 " fill-opacity="1" fill-rule="nonzero"/></g></g></g><g clip-path="url(#47d15bc793)"><g clip-path="url(#ffe9bf7ef9)"><g clip-path="url(#e57814c238)"><path fill="#145da0" d="M 126.238281 67.476562 L 112.660156 81.054688 L 105.792969 74.183594 L 119.371094 60.605469 Z M 126.238281 67.476562 " fill-opacity="1" fill-rule="nonzero"/></g></g></g><g clip-path="url(#c6f1ca4e68)"><g clip-path="url(#ae7062130b)"><g clip-path="url(#1ba33fce71)"><path fill="#145da0" d="M 113.558594 73.738281 L 99.980469 87.316406 L 93.109375 80.445312 L 106.6875 66.867188 Z M 113.558594 73.738281 " fill-opacity="1" fill-rule="nonzero"/></g></g></g><g clip-path="url(#0ce8315fce)"><g clip-path="url(#466bd3dbc2)"><g clip-path="url(#9ac86078ab)"><path fill="#145da0" d="M 119.820312 67.476562 L 106.242188 81.054688 L 99.371094 74.183594 L 112.953125 60.605469 Z M 119.820312 67.476562 " fill-opacity="1" fill-rule="nonzero"/></g></g></g><g fill="#ffffff" fill-opacity="1"><g transform="translate(5.5956, 67.517284)"><g><path d="M 22.78125 -25.023438 L 18.75 -25.023438 C 17.722656 -25.023438 17.457031 -24.71875 17.152344 -23.804688 L 12.015625 -8.0625 L 6.84375 -23.804688 C 6.542969 -24.71875 6.273438 -25.023438 5.285156 -25.023438 L 1.066406 -25.023438 C 0.34375 -25.023438 0.191406 -24.414062 0.378906 -23.921875 L 8.558594 -1.140625 C 9.011719 -0.152344 9.277344 0 10.117188 0 L 13.765625 0 C 14.601562 0 14.871094 -0.152344 15.324219 -1.140625 L 23.464844 -23.921875 C 23.65625 -24.414062 23.503906 -25.023438 22.78125 -25.023438 Z M 22.78125 -25.023438 "/></g></g></g><g fill="#ffffff" fill-opacity="1"><g transform="translate(28.221078, 67.517284)"><g><path d="M 13.691406 -5.210938 L 11.292969 -5.210938 L 11.292969 -19.738281 L 13.578125 -19.738281 C 14.453125 -19.738281 14.679688 -20.15625 14.679688 -20.839844 L 14.679688 -23.921875 C 14.679688 -24.605469 14.453125 -25.023438 13.578125 -25.023438 L 3.003906 -25.023438 C 2.128906 -25.023438 1.902344 -24.605469 1.902344 -23.921875 L 1.902344 -20.839844 C 1.902344 -20.15625 2.128906 -19.738281 3.003906 -19.738281 L 5.324219 -19.738281 L 5.324219 -5.210938 L 2.929688 -5.210938 C 2.054688 -5.210938 1.824219 -4.792969 1.824219 -4.105469 L 1.824219 -1.101562 C 1.824219 -0.417969 2.054688 0 2.929688 0 L 13.691406 0 C 14.566406 0 14.792969 -0.417969 14.792969 -1.101562 L 14.792969 -4.105469 C 14.792969 -4.792969 14.566406 -5.210938 13.691406 -5.210938 Z M 13.691406 -5.210938 "/></g></g></g><g fill="#ffffff" fill-opacity="1"><g transform="translate(43.545505, 67.517284)"><g><path d="M 14.601562 -14.527344 C 13.082031 -15.136719 7.492188 -15.972656 7.492188 -18.292969 C 7.492188 -20.003906 9.582031 -20.496094 10.839844 -20.496094 C 11.980469 -20.496094 13.347656 -20.15625 14.070312 -19.472656 C 14.527344 -19.015625 14.71875 -18.710938 14.871094 -18.332031 C 15.058594 -17.835938 15.175781 -17.304688 15.894531 -17.304688 L 19.625 -17.304688 C 20.496094 -17.304688 20.726562 -17.457031 20.726562 -18.367188 C 20.726562 -23.386719 15.441406 -25.59375 10.609375 -25.59375 C 5.855469 -25.402344 1.367188 -22.96875 1.367188 -18.027344 C 1.367188 -13.195312 4.90625 -11.675781 8.746094 -10.457031 C 11.980469 -9.429688 15.363281 -9.394531 15.363281 -7.261719 C 15.363281 -5.132812 13.691406 -4.675781 11.636719 -4.675781 C 10.230469 -4.675781 8.671875 -5.019531 7.910156 -5.933594 C 7.414062 -6.503906 7.226562 -6.996094 7.1875 -7.492188 C 7.113281 -8.441406 6.691406 -8.558594 5.820312 -8.558594 L 2.128906 -8.558594 C 1.253906 -8.558594 1.027344 -8.367188 1.027344 -7.492188 C 1.027344 -2.167969 6.503906 0.570312 11.257812 0.570312 C 17.113281 0.570312 21.371094 -2.015625 21.371094 -7.414062 C 21.371094 -12.585938 17.339844 -13.691406 14.601562 -14.527344 Z M 14.601562 -14.527344 "/></g></g></g><g fill="#ffffff" fill-opacity="1"><g transform="translate(64.992163, 67.517284)"><g><path d="M 13.691406 -5.210938 L 11.292969 -5.210938 L 11.292969 -19.738281 L 13.578125 -19.738281 C 14.453125 -19.738281 14.679688 -20.15625 14.679688 -20.839844 L 14.679688 -23.921875 C 14.679688 -24.605469 14.453125 -25.023438 13.578125 -25.023438 L 3.003906 -25.023438 C 2.128906 -25.023438 1.902344 -24.605469 1.902344 -23.921875 L 1.902344 -20.839844 C 1.902344 -20.15625 2.128906 -19.738281 3.003906 -19.738281 L 5.324219 -19.738281 L 5.324219 -5.210938 L 2.929688 -5.210938 C 2.054688 -5.210938 1.824219 -4.792969 1.824219 -4.105469 L 1.824219 -1.101562 C 1.824219 -0.417969 2.054688 0 2.929688 0 L 13.691406 0 C 14.566406 0 14.792969 -0.417969 14.792969 -1.101562 L 14.792969 -4.105469 C 14.792969 -4.792969 14.566406 -5.210938 13.691406 -5.210938 Z M 13.691406 -5.210938 "/></g></g></g><g fill="#ffffff" fill-opacity="1"><g transform="translate(80.316588, 67.517284)"><g><path d="M 19.738281 -25.023438 L 2.089844 -25.023438 C 1.21875 -25.023438 0.988281 -24.605469 0.988281 -23.921875 L 0.988281 -20.765625 C 0.988281 -20.078125 1.21875 -19.660156 2.089844 -19.660156 L 7.949219 -19.660156 L 7.949219 -1.101562 C 7.949219 -0.226562 8.367188 0 9.050781 0 L 12.816406 0 C 13.5 0 13.917969 -0.226562 13.917969 -1.101562 L 13.917969 -19.660156 L 19.738281 -19.660156 C 20.613281 -19.660156 20.839844 -20.078125 20.839844 -20.765625 L 20.839844 -23.921875 C 20.839844 -24.605469 20.613281 -25.023438 19.738281 -25.023438 Z M 19.738281 -25.023438 "/></g></g></g><g fill="#ffffff" fill-opacity="1"><g transform="translate(100.58443, 67.517284)"><g><path d="M 20.953125 -5.324219 L 8.824219 -5.324219 L 8.824219 -10.34375 L 19.015625 -10.34375 C 19.890625 -10.34375 20.117188 -10.761719 20.117188 -11.445312 L 20.117188 -14.414062 C 20.117188 -15.097656 19.890625 -15.515625 19.015625 -15.515625 L 8.824219 -15.515625 L 8.824219 -19.660156 L 20.308594 -19.660156 C 21.183594 -19.660156 21.410156 -20.078125 21.410156 -20.765625 L 21.410156 -23.921875 C 21.410156 -24.605469 21.183594 -25.023438 20.308594 -25.023438 L 3.917969 -25.023438 C 3.042969 -25.023438 2.8125 -24.605469 2.8125 -23.921875 L 2.8125 -1.101562 C 2.8125 -0.417969 3.042969 0 3.917969 0 L 20.953125 0 C 21.828125 0 22.058594 -0.417969 22.058594 -1.101562 L 22.058594 -4.222656 C 22.058594 -4.90625 21.828125 -5.324219 20.953125 -5.324219 Z M 20.953125 -5.324219 "/></g></g></g><g fill="#ffffff" fill-opacity="1"><g transform="translate(122.867662, 67.517284)"><g><path d="M 22.09375 -7.414062 C 22.09375 -8.328125 21.789062 -8.707031 20.953125 -8.707031 L 17.226562 -8.707031 C 16.390625 -8.707031 16.316406 -8.101562 16.199219 -7.339844 C 15.894531 -5.515625 14.261719 -4.753906 12.207031 -4.753906 C 9.699219 -4.753906 7.984375 -6.121094 7.984375 -8.558594 L 7.984375 -16.46875 C 7.984375 -18.863281 9.699219 -20.269531 12.207031 -20.269531 C 14.261719 -20.269531 15.324219 -19.699219 16.125 -18.445312 C 16.429688 -17.988281 16.46875 -17.265625 17.265625 -17.265625 L 20.917969 -17.265625 C 21.789062 -17.265625 22.09375 -17.457031 22.09375 -18.367188 C 21.601562 -23.199219 16.921875 -25.59375 12.207031 -25.59375 C 7.683594 -25.59375 2.015625 -22.96875 2.015625 -17 L 2.015625 -8.023438 C 2.015625 -2.054688 7.683594 0.570312 12.207031 0.570312 C 16.921875 0.570312 22.09375 -2.511719 22.09375 -7.414062 Z M 22.09375 -7.414062 "/></g></g></g><g fill="#ffffff" fill-opacity="1"><g transform="translate(145.341025, 67.517284)"><g><path d="M 22.132812 -25.023438 L 18.367188 -25.023438 C 17.683594 -25.023438 17.265625 -24.796875 17.265625 -23.921875 L 17.265625 -15.324219 L 8.785156 -15.324219 L 8.785156 -23.921875 C 8.785156 -24.796875 8.40625 -25.023438 7.683594 -25.023438 L 3.917969 -25.023438 C 3.234375 -25.023438 2.8125 -24.796875 2.8125 -23.921875 L 2.8125 -1.101562 C 2.8125 -0.226562 3.234375 0 3.917969 0 L 7.683594 0 C 8.40625 0 8.785156 -0.226562 8.785156 -1.101562 L 8.785156 -9.699219 L 17.265625 -9.699219 L 17.265625 -1.101562 C 17.265625 -0.226562 17.683594 0 18.367188 0 L 22.132812 0 C 22.816406 0 23.234375 -0.226562 23.234375 -1.101562 L 23.234375 -23.921875 C 23.234375 -24.796875 22.816406 -25.023438 22.132812 -25.023438 Z M 22.132812 -25.023438 "/></g></g></g></svg>